<svg xmlns="http://www.w3.org/2000/svg" viewBox="0 0 100 100" fill="none">
  <defs>
    <linearGradient id="settingsGrad" x1="0%" y1="0%" x2="100%" y2="100%">
      <stop offset="0%" style="stop-color:#00BCD4;stop-opacity:1" />
      <stop offset="50%" style="stop-color:#00f0ff;stop-opacity:1" />
      <stop offset="100%" style="stop-color:#aa00ff;stop-opacity:1" />
    </linearGradient>
    <filter id="settingsGlow" x="-50%" y="-50%" width="200%" height="200%">
      <feGaussianBlur stdDeviation="2" result="blur"/>
      <feMerge>
        <feMergeNode in="blur"/>
        <feMergeNode in="SourceGraphic"/>
      </feMerge>
    </filter>
    <style>
      @keyframes settingsSpin { from { transform: rotate(0deg); } to { transform: rotate(360deg); } }
      @keyframes settingsPulse { 0%, 100% { opacity: 1; } 50% { opacity: 0.5; } }
      .settings-spin { animation: settingsSpin 12s linear infinite; transform-origin: 50px 50px; }
      .settings-pulse { animation: settingsPulse 2s ease-in-out infinite; }
    </style>
  </defs>

  <g filter="url(#settingsGlow)">
    <!-- Gear teeth (8 teeth around a circle) -->
    <g class="settings-spin" stroke="url(#settingsGrad)" stroke-width="2" fill="rgba(0, 188, 212, 0.1)">
      <path d="M 44,12 L 56,12 L 58,22 L 42,22 Z"/>
      <path d="M 78,44 L 78,56 L 88,58 L 88,42 Z"/>
      <path d="M 44,88 L 56,88 L 58,78 L 42,78 Z"/>
      <path d="M 12,44 L 12,56 L 22,58 L 22,42 Z"/>
      <path d="M 70,18 L 78,26 L 71,33 L 63,25 Z"/>
      <path d="M 74,70 L 82,78 L 75,71 L 67,63 Z" transform="rotate(90, 50, 50)"/>
      <path d="M 18,70 L 26,78 L 33,71 L 25,63 Z"/>
      <path d="M 22,22 L 30,14 L 37,21 L 29,29 Z" transform="rotate(0, 50, 50)"/>
      <!-- Main gear body -->
      <circle cx="50" cy="50" r="28" stroke-width="2.5"/>
    </g>

    <!-- Inner ring -->
    <circle cx="50" cy="50" r="16" stroke="url(#settingsGrad)" stroke-width="1.5" fill="none" opacity="0.5"/>

    <!-- Center dot -->
    <circle cx="50" cy="50" r="6" fill="url(#settingsGrad)" opacity="0.4"/>

    <!-- Circuit trace lines -->
    <g stroke="url(#settingsGrad)" stroke-width="1" opacity="0.3" class="settings-pulse">
      <line x1="50" y1="34" x2="50" y2="22"/>
      <line x1="66" y1="50" x2="78" y2="50"/>
      <line x1="50" y1="66" x2="50" y2="78"/>
      <line x1="34" y1="50" x2="22" y2="50"/>
    </g>

    <!-- Status dot -->
    <circle cx="78" cy="22" r="4" fill="#00ff88">
      <animate attributeName="opacity" values="1;0.3;1" dur="1.5s" repeatCount="indefinite"/>
    </circle>
  </g>
</svg>
